<?xml version="1.0" encoding="UTF-8" standalone="no"?>
<!DOCTYPE svg PUBLIC "-//W3C//DTD SVG 1.1//EN" "http://www.w3.org/Graphics/SVG/1.1/DTD/svg11.dtd">
<!--Generator: Xara Designer (www.xara.com), SVG filter version: 6.1.0.16-->
<svg stroke-width="0.501" stroke-linejoin="bevel" fill-rule="evenodd" xmlns:xlink="http://www.w3.org/1999/xlink" xmlns="http://www.w3.org/2000/svg" version="1.1" overflow="visible" width="720pt" height="720pt" viewBox="0 0 720 720">
 <defs>
	</defs>
 <g id="Document" fill="none" stroke="black" font-family="Times New Roman" font-size="16" transform="scale(1 -1)">
  <g id="Spread" transform="translate(0 -720)">
   <g id="Layer 1">
    <path d="M 367.134,149.4 C 379.161,121.295 379.481,95.704 367.134,72.825 C 355.242,94.784 352.617,119.518 367.134,149.4 Z M 344.403,125.783 C 340.359,109.676 331.408,101.04 319.793,96.446 C 322.414,109.181 330.761,118.882 344.403,125.783 Z M 389.076,125.783 C 402.715,118.882 411.061,109.181 413.682,96.446 C 402.071,101.04 393.125,109.676 389.076,125.783 Z M 105.08,131.831 C 98.725,126.098 92.272,120.288 83.202,115.256 C 64.299,106.629 62.875,115.834 69.61,126.192 C 72.99,131.703 69.865,130.897 64.635,128.515 C 38.325,110.792 16.772,101.629 3.644,107.634 L 220.488,258.559 L 334.14,344.648 L 201.96,442.849 L 201.875,442.773 L 35.797,555.483 C 50.558,564.898 74.362,547.189 96.794,533.604 C 103.073,532.087 103.622,534.584 101.103,539.24 C 96.59,550.202 96.39,557.23 112.705,549.183 C 120.369,543.586 127.461,537.423 134.251,530.954 C 133.236,548.049 137.524,558.619 147.843,561.778 C 142.536,522.336 169.512,507.49 214.858,472.625 L 354.365,368.848 L 346.88,557.814 L 346.743,557.802 C 346.833,621.747 330.957,644.972 287.401,649.294 C 261.439,651.868 230.262,638.975 224.089,612.166 C 223.242,597.201 229.878,586.916 242.98,580.673 C 249.1,579.93 252.169,580.72 247.622,585.313 C 239.318,597.124 249.032,614.28 269.166,609.182 C 284.076,602.985 283.113,584.713 269.499,575.698 C 229.405,560.294 201.249,604.02 214.142,633.378 C 222.095,645.714 230.709,656.224 246.628,662.882 C 257.531,666.918 257.996,662.294 249.279,671.833 C 242.584,680.792 236.348,690.446 233.365,704.988 C 233.014,712.085 235.688,716.73 245.635,704.988 C 258.857,687.074 272.04,669.105 299.006,669.842 C 319.64,668.303 325.986,657.707 342.507,656.122 C 367.475,651.856 396.168,652.926 431.69,664.502 C 468.567,671.837 492.848,666.462 517.458,648.629 C 572.356,616.445 574.141,549.626 533.702,512.054 C 503.256,488.907 469.222,484.465 434.255,484.87 C 413.805,484.849 399.795,466.146 410.054,452.055 C 416.409,445.423 425.109,442.904 419.001,450.397 C 415.847,458.073 423.025,466.62 434.255,459.016 C 447.404,441.379 414.67,438.229 411.048,445.096 C 400.277,448.484 391.799,480.097 417.015,489.512 C 422.96,489.665 419.197,491.975 416.017,494.153 C 407.825,504.75 401.031,516.049 400.111,530.285 C 400.499,532.603 400.695,535.292 407.076,526.641 C 432.899,478.878 525.104,485.502 522.428,582.33 C 514.564,634.478 479.251,662.712 435.577,652.277 C 400.417,645.53 385.415,627.152 386.851,600.227 L 387.183,560.452 L 386.881,560.435 L 387.512,380.118 L 550.153,500.769 C 569.333,517.327 578.979,537.299 578.783,560.785 C 587.644,554.732 592.226,544.831 592.371,530.954 C 597.694,537.944 603.507,544.196 610.609,548.518 C 627.138,555.299 634.86,552.666 625.855,538.907 C 621.448,532.483 623.86,529.65 630.828,533.933 C 652.336,550.287 672.884,560.857 690.827,555.815 C 591.382,492.828 491.936,417.114 392.481,342.662 L 571.103,211.586 L 571.162,211.722 L 719.998,111.606 C 703.12,105.895 679.947,119.057 655.69,135.479 C 652.575,136.6 651.564,135.624 653.704,131.499 C 663.592,117.506 657.476,112.255 641.77,118.239 C 634.525,123.268 628.165,129.172 621.879,135.147 C 620.514,117.92 614.389,109.62 605.967,105.644 C 609.573,139.281 589.298,160.69 563.085,179.013 L 390.167,304.208 L 389.988,226.397 C 388.3,191.059 402.161,159.983 433.258,131.17 C 399.386,141.877 374.568,160.102 362.812,189.179 C 352.919,155.32 331.574,131.707 293.368,123.213 C 326.08,147.439 350.345,181.797 353.734,241.135 L 354.036,311.832 L 239.954,229.027 L 239.996,228.958 L 231.182,222.659 L 223.424,217.024 L 223.395,217.092 L 150.494,164.983 C 128.398,148.432 114.781,128.562 117.346,102.328 C 106.606,105.274 100.979,116.487 105.08,131.831 Z M 708.729,280.339 L 646.74,281.004 L 636.795,297.243 C 678.924,302.098 702.221,411.04 613.26,413.27 C 550.414,414.842 522.048,333.915 588.73,296.916 L 579.115,281.337 L 518.455,281.665 L 511.163,310.836 C 519.827,297.328 536.566,288.941 571.823,292.274 C 531.289,317.693 510.149,392.009 579.776,424.871 C 605.928,433.038 627.901,434.21 656.9,420.047 C 702.127,393.859 697.196,331.541 669.615,304.54 C 663.741,299.102 658.652,295.645 653.704,292.938 C 674.589,293.752 695.469,290.812 716.354,311.501 L 708.729,280.339 Z M 84.86,280.671 L 5.302,281.004 L 0,301.885 C 9.883,296.361 21.851,292.219 36.685,289.989 L 36.726,290.07 L 109.581,411.7 C 73.637,412.686 55.476,410.827 50.05,405.312 L 60.331,421.888 L 160.77,424.207 L 170.386,405.649 C 164.798,413.5 141.791,412.635 118.869,411.82 L 196.211,289.316 L 196.274,289.204 C 207.577,290.99 217.475,294.882 225.079,302.222 L 223.093,280.671 L 142.54,281.665 L 136.902,295.922 C 142.899,290.406 154.309,286.98 176.267,287.62 L 176.251,287.649 L 151.7,326.367 L 69.524,325.791 L 49.164,288.71 L 49.121,288.625 C 58.174,287.973 66.627,287.402 77.687,288.088 C 82.025,288.647 86.902,292.764 89.502,298.573 L 84.86,280.671 Z M 71.37,329.15 L 149.663,329.734 L 107.829,395.577 L 71.37,329.15 Z M 245.303,498.463 C 248.426,505.278 252.463,511.186 258.234,515.371 C 259.871,517.728 263.297,518.678 257.232,520.34 C 247.626,520.899 241.249,524.684 235.355,528.963 C 233.457,531.814 234.784,534.001 239.336,531.614 C 272.351,527.748 296.398,539.559 295.179,596.097 C 318.289,554.801 265.924,511.995 289.212,494 C 290.827,488.656 288.355,488.217 281.259,493.339 C 277.994,495.82 276.093,499.656 274.627,503.944 C 273.924,506.189 272.628,506.365 270.164,502.443 C 264.495,496.54 258.98,490.326 251.27,488.519 C 246.207,486.366 241.884,485.539 245.303,498.463 Z" fill="#000000" stroke-linejoin="miter" stroke="none" marker-start="none" marker-end="none"/>
   </g>
  </g>
 </g>
</svg>